HIERARCHY
ROOT Hips
{
	OFFSET 0.00000 0.00000 0.00000
	CHANNELS 6 Xposition Yposition Zposition Zrotation Yrotation Xrotation 
	JOINT LHipJoint
	{
		OFFSET 0 0 0
		CHANNELS 3 Zrotation Yrotation Xrotation
		JOINT LeftUpLeg
		{
			OFFSET 1.74857 -1.85566 0.69197
			CHANNELS 3 Zrotation Yrotation Xrotation
			JOINT LeftLeg
			{
				OFFSET 2.40003 -6.59403 0.00000
				CHANNELS 3 Zrotation Yrotation Xrotation
				JOINT LeftFoot
				{
					OFFSET 2.82169 -7.75254 0.00000
					CHANNELS 3 Zrotation Yrotation Xrotation
					JOINT LeftToeBase
					{
						OFFSET 0.16466 -0.45240 2.26890
						CHANNELS 3 Zrotation Yrotation Xrotation
						End Site
						{
							OFFSET 0.00000 -0.00000 1.16486
						}
					}
				}
			}
		}
	}
	JOINT RHipJoint
	{
		OFFSET 0 0 0
		CHANNELS 3 Zrotation Yrotation Xrotation
		JOINT RightUpLeg
		{
			OFFSET -1.64169 -1.85566 0.69197
			CHANNELS 3 Zrotation Yrotation Xrotation
			JOINT RightLeg
			{
				OFFSET -2.41814 -6.64379 0.00000
				CHANNELS 3 Zrotation Yrotation Xrotation
				JOINT RightFoot
				{
					OFFSET -2.80588 -7.70911 0.00000
					CHANNELS 3 Zrotation Yrotation Xrotation
					JOINT RightToeBase
					{
						OFFSET -0.19098 -0.52472 2.25401
						CHANNELS 3 Zrotation Yrotation Xrotation
						End Site
						{
							OFFSET -0.00000 -0.00000 1.16333
						}
					}
				}
			}
		}
	}
	JOINT LowerBack
	{
		OFFSET 0 0 0
		CHANNELS 3 Zrotation Yrotation Xrotation
		JOINT Spine
		{
			OFFSET -0.02828 2.14690 -0.11061
			CHANNELS 3 Zrotation Yrotation Xrotation
			JOINT Spine1
			{
				OFFSET -0.00167 2.15299 0.00759
				CHANNELS 3 Zrotation Yrotation Xrotation
				JOINT Neck
				{
					OFFSET 0 0 0
					CHANNELS 3 Zrotation Yrotation Xrotation
					JOINT Neck1
					{
						OFFSET -0.09296 1.90118 0.07197
						CHANNELS 3 Zrotation Yrotation Xrotation
						JOINT Head
						{
							OFFSET 0.08490 1.89526 -0.24604
							CHANNELS 3 Zrotation Yrotation Xrotation
							End Site
							{
								OFFSET 0.03186 1.92109 -0.09483
							}
						}
					}
				}
				JOINT LeftShoulder
				{
					OFFSET 0 0 0
					CHANNELS 3 Zrotation Yrotation Xrotation
					JOINT LeftArm
					{
						OFFSET 3.21569 1.44644 -0.03720
						CHANNELS 3 Zrotation Yrotation Xrotation
						JOINT LeftForeArm
						{
							OFFSET 5.47651 -0.00000 -0.00000
							CHANNELS 3 Zrotation Yrotation Xrotation
							JOINT LeftHand
							{
								OFFSET 3.09058 -0.00000 -0.00000
								CHANNELS 3 Zrotation Yrotation Xrotation
								JOINT LeftFingerBase
								{
									OFFSET 0 0 0
									CHANNELS 3 Zrotation Yrotation Xrotation
									JOINT LeftHandIndex1
									{
										OFFSET 0.77161 -0.00000 -0.00000
										CHANNELS 3 Zrotation Yrotation Xrotation
										End Site
										{
											OFFSET 0.62209 -0.00000 -0.00000
										}
									}
								}
								JOINT LThumb
								{
									OFFSET 0 0 0
									CHANNELS 3 Zrotation Yrotation Xrotation
									End Site
									{
										OFFSET 0.63159 -0.00000 0.63159
									}
								}
							}
						}
					}
				}
				JOINT RightShoulder
				{
					OFFSET 0 0 0
					CHANNELS 3 Zrotation Yrotation Xrotation
					JOINT RightArm
					{
						OFFSET -3.38693 1.28904 -0.07093
						CHANNELS 3 Zrotation Yrotation Xrotation
						JOINT RightForeArm
						{
							OFFSET -5.14182 -0.00000 -0.00000
							CHANNELS 3 Zrotation Yrotation Xrotation
							JOINT RightHand
							{
								OFFSET -3.35565 -0.00000 -0.00000
								CHANNELS 3 Zrotation Yrotation Xrotation
								JOINT RightFingerBase
								{
									OFFSET 0 0 0
									CHANNELS 3 Zrotation Yrotation Xrotation
									JOINT RightHandIndex1
									{
										OFFSET -0.80104 -0.00000 -0.00000
										CHANNELS 3 Zrotation Yrotation Xrotation
										End Site
										{
											OFFSET -0.64582 -0.00000 -0.00000
										}
									}
								}
								JOINT RThumb
								{
									OFFSET 0 0 0
									CHANNELS 3 Zrotation Yrotation Xrotation
									End Site
									{
										OFFSET -0.65568 -0.00000 0.65568
									}
								}
							}
						}
					}
				}
			}
		}
	}
}
MOTION
Frames: 16
Frame Time: .0083333
-0.5821 18.0989 -0.7515 0 0 0 0 0 0 -21 0 0 0 0 0 0 0 0 0 0 0 0 0 0 21 0 0 0 0 0 0 0 0 0 0 0 0 0 0 0 0 0 0 0 0 0 0 -16 0 0 21 0 0 11 0 0 0 -8 0 0 0 0 0 0 0 0 0 0 0 0 0 0 0 0 0 0 0 0 8 0 0 0 0 0 0 0 0 0 0 0 0 0 0 0 0 0
-0.5821 18.0989 -0.7515 2.8535 1.5925 0.0601 0.0000 0.0000 0.0000 -19.8965 -5.4010 -1.6253 0.5944 4.9356 13.7251 0.2308 8.0725 -15.3465 0.9260 -6.1304 -17.1632 0.0000 0.0000 0.0000 18.4266 5.5929 -5.3353 -1.4189 -7.5331 21.3046 -0.4320 -9.7970 -19.5967 -0.1177 2.2118 -6.0913 -1.8032 2.1831 4.8041 0.4718 2.8375 2.8881 1.3617 1.3953 0.1659 -6.8129 -7.2935 -4.6513 2.8675 -9.4849 8.0730 1.6538 -4.7877 4.0125 -0.0000 0.0000 0.0000 -60.6500 1.4178 70.6827 132.5531 -51.9124 -95.8503 -0.0000 0.0000 -14.0421 0.6715 15.9738 0.1848 -7.1250 0.0000 -0.0000 -24.7070 44.4218 0.3766 -0.0000 0.0000 0.0000 58.6719 -7.0040 66.5160 -130.0118 52.9908 -93.8352 0.0000 -0.0000 -27.2936 -13.9175 28.0789 -6.6527 7.1250 -0.0000 -0.0000 9.7237 -1.5458 9.5982
-0.5893 18.0962 -0.7688 2.8207 1.6641 0.0227 0.0000 0.0000 0.0000 -19.8208 -5.4505 -1.7084 0.6034 4.9723 13.8296 0.2393 7.9689 -15.3547 0.9091 -6.0759 -17.0049 0.0000 0.0000 0.0000 18.4875 5.5934 -5.3890 -1.4261 -7.5514 21.3597 -0.4247 -9.8625 -19.5853 -0.1175 2.2104 -6.0874 -1.7539 2.2009 4.9633 0.5012 2.8606 2.9577 1.3584 1.4069 0.1489 -6.7936 -7.2656 -4.6270 2.8751 -9.4483 7.9054 1.6588 -4.7678 3.9451 0.0000 0.0000 0.0000 -59.9999 0.5756 71.3720 132.6974 -51.8479 -95.9639 -0.0000 0.0000 -14.8910 0.7673 16.1075 0.2129 -7.1250 0.0000 -0.0000 -24.6800 44.5545 0.2898 0.0000 0.0000 0.0000 57.9158 -6.5643 67.2273 -130.3447 52.8555 -94.1008 0.0000 -0.0000 -28.5991 -14.2340 27.9714 -6.7851 7.1250 -0.0000 -0.0000 9.5292 -1.6065 9.3902
-0.5953 18.0951 -0.7867 2.8546 1.7463 0.0087 0.0000 0.0000 0.0000 -19.8310 -5.5198 -1.7671 0.6067 4.9855 13.8672 0.2406 7.8927 -15.2912 0.9187 -6.1070 -17.0950 0.0000 0.0000 0.0000 18.4626 5.5850 -5.5027 -1.4433 -7.5948 21.4901 -0.4294 -9.8558 -19.6287 -0.1138 2.1751 -5.9897 -1.7754 2.1868 5.1131 0.5071 2.8386 3.0229 1.3731 1.3953 0.1321 -6.7055 -7.2098 -4.6454 2.8355 -9.3730 7.7476 1.6368 -4.7281 3.8799 -0.0000 -0.0000 0.0000 -59.3814 -0.2223 71.8467 132.8061 -51.7991 -96.0493 -0.0000 0.0000 -15.4999 0.5387 16.1263 0.1496 -7.1250 0.0000 -0.0000 -24.8842 44.5451 0.2987 -0.0000 -0.0000 0.0000 57.1486 -5.9821 68.0010 -130.5896 52.7549 -94.2959 0.0000 -0.0000 -29.7875 -14.6191 27.8925 -6.9570 7.1250 -0.0000 -0.0000 9.2957 -1.6281 9.1501
-0.6006 18.0946 -0.8050 2.9192 1.8329 0.0835 0.0000 0.0000 0.0000 -19.8695 -5.5906 -1.9534 0.6124 5.0086 13.9331 0.2370 7.8577 -15.2043 0.9351 -6.1595 -17.2480 0.0000 0.0000 0.0000 18.3942 5.5970 -5.7025 -1.4570 -7.6292 21.5935 -0.4174 -9.9503 -19.5973 -0.1174 2.2094 -6.0846 -1.8129 2.1580 5.1628 0.5035 2.7981 3.0862 1.3920 1.3739 0.1696 -6.6410 -7.1301 -4.7416 2.8310 -9.2625 7.6281 1.6295 -4.6700 3.8456 0.0000 -0.0000 0.0000 -58.7824 -1.0356 72.2811 132.9457 -51.7361 -96.1590 -0.0000 0.0000 -16.2369 0.5777 16.1792 0.1610 -7.1250 0.0000 -0.0000 -24.8727 44.5975 0.2641 0.0000 -0.0000 0.0000 56.3319 -5.3121 68.7488 -130.8469 52.6482 -94.5007 0.0000 -0.0000 -31.0766 -14.9636 27.8556 -7.1182 7.1250 -0.0000 -0.0000 9.0893 -1.6133 8.9440
-0.6065 18.0947 -0.8243 2.9160 1.9009 0.1553 0.0000 0.0000 0.0000 -19.8279 -5.6520 -2.1566 0.6178 5.0301 13.9945 0.2252 7.8900 -15.0712 0.9662 -6.2584 -17.5361 0.0000 0.0000 0.0000 18.3972 5.6511 -5.9031 -1.4714 -7.6652 21.7017 -0.4128 -9.9967 -19.5962 -0.1071 2.1100 -5.8097 -1.7490 2.1511 5.2256 0.4869 2.7907 3.1397 1.3386 1.3705 0.1938 -6.5568 -7.0600 -4.7940 2.8658 -9.1725 7.4912 1.6323 -4.6203 3.7992 -0.0000 0.0000 0.0000 -58.0415 -1.9448 72.7835 133.1214 -51.6563 -96.2969 -0.0000 0.0000 -16.9641 0.5944 16.2583 0.1664 -7.1250 0.0000 -0.0000 -24.8914 44.6711 0.2160 -0.0000 0.0000 0.0000 55.5433 -4.6728 69.5239 -131.1314 52.5289 -94.7266 0.0000 -0.0000 -32.4650 -15.4611 27.9513 -7.3869 7.1250 -0.0000 -0.0000 8.8029 -1.4412 8.6826
-0.6149 18.0943 -0.8469 2.9140 2.0193 0.2347 0.0000 0.0000 0.0000 -19.7738 -5.7823 -2.3855 0.6267 5.0655 14.0955 0.2258 7.8085 -14.9915 0.9229 -6.1205 -17.1343 0.0000 0.0000 0.0000 18.4100 5.7008 -6.1107 -1.4833 -7.6949 21.7910 -0.4082 -10.0499 -19.6019 -0.0965 2.0033 -5.5147 -1.7090 2.1455 5.3305 0.4959 2.7832 3.1773 1.3227 1.3671 0.1759 -6.6231 -7.0224 -4.8033 2.9949 -9.1244 7.3201 1.6921 -4.5922 3.7504 -0.0000 0.0000 0.0000 -57.3186 -2.8941 73.3815 133.3560 -51.5489 -96.4807 -0.0000 0.0000 -17.8662 0.7494 16.5518 0.2135 -7.1250 0.0000 -0.0000 -24.8815 44.9556 0.0292 -0.0000 0.0000 0.0000 54.6607 -4.0073 70.2733 -131.5378 52.3561 -95.0488 0.0000 -0.0000 -33.8193 -16.0397 27.8809 -7.6571 7.1250 -0.0000 -0.0000 8.4550 -1.4215 8.3346
-0.6227 18.0961 -0.8703 2.9132 2.1610 0.3220 0.0000 0.0000 0.0000 -19.7158 -5.8438 -2.6578 0.6373 5.1075 14.2154 0.2246 7.6849 -14.8424 0.9370 -6.1658 -17.2662 0.0000 0.0000 0.0000 18.4196 5.6836 -6.3325 -1.4938 -7.7208 21.8691 -0.4162 -10.0357 -19.6730 -0.0920 1.9562 -5.3846 -1.6531 2.1405 5.4241 0.5271 2.7778 3.2371 1.3215 1.3644 0.1866 -6.8318 -7.0172 -4.9916 3.1593 -9.1014 7.3013 1.7789 -4.5785 3.8032 -0.0000 -0.0000 0.0000 -56.5889 -4.0378 74.0584 133.6062 -51.4333 -96.6765 -0.0000 0.0000 -19.0986 1.1880 16.8913 0.3452 -7.1250 0.0000 -0.0000 -24.6464 45.3160 -0.2049 -0.0000 -0.0000 0.0000 53.6924 -3.2239 70.8959 -131.9410 52.1820 -95.3677 0.0000 -0.0000 -35.0343 -16.4924 27.7740 -7.8552 7.1250 -0.0000 -0.0000 8.1777 -1.4569 8.0502
-0.6298 18.0976 -0.8936 2.8782 2.2469 0.3782 0.0000 0.0000 0.0000 -19.6147 -5.6810 -2.9771 0.6480 5.1495 14.3353 0.2156 7.5868 -14.6075 1.0645 -6.5594 -18.4166 0.0000 0.0000 0.0000 18.4616 5.6445 -6.5494 -1.5063 -7.7515 21.9619 -0.4218 -9.9890 -19.6842 -0.0934 1.9712 -5.4260 -1.5642 2.1308 5.5461 0.5699 2.7672 3.2827 1.3126 1.3597 0.1682 -6.9841 -6.9857 -5.1128 3.2505 -9.0455 7.2794 1.8361 -4.5504 3.8315 -0.0000 0.0000 0.0000 -55.8437 -5.1932 74.5014 133.8385 -51.3250 -96.8580 -0.0000 0.0000 -20.0322 0.9801 17.1006 0.2882 -7.1250 0.0000 -0.0000 -24.9169 45.4807 -0.3155 -0.0000 0.0000 0.0000 52.7501 -2.4117 71.5215 -132.2460 52.0485 -95.6084 0.0000 -0.0000 -35.9895 -16.8916 27.8353 -8.0702 7.1250 -0.0000 -0.0000 7.9469 -1.3307 7.8365
-0.6360 18.0964 -0.9156 2.9443 2.3168 0.4348 0.0000 0.0000 0.0000 -19.6409 -5.6535 -3.2387 0.6590 5.1921 14.4573 0.2109 7.5546 -14.5023 1.1327 -6.7595 -19.0047 0.0000 0.0000 0.0000 18.3803 5.6172 -6.7675 -1.5230 -7.7925 22.0855 -0.4200 -9.9554 -19.6310 -0.0914 1.9503 -5.3682 -1.5836 2.1186 5.6635 0.5639 2.7482 3.3068 1.3144 1.3502 0.1278 -6.9822 -6.9403 -5.1098 3.2821 -8.9851 7.1375 1.8522 -4.5182 3.7791 -0.0000 -0.0000 0.0000 -55.0982 -6.1505 74.7705 134.1016 -51.2011 -97.0632 -0.0000 0.0000 -20.8121 0.4701 17.1943 0.1390 -7.1250 0.0000 -0.0000 -25.4000 45.5033 -0.3376 -0.0000 -0.0000 0.0000 51.8634 -1.6660 72.1270 -132.5110 51.9312 -95.8172 0.0000 -0.0000 -36.8665 -17.4563 28.1008 -8.4253 7.1250 -0.0000 -0.0000 7.6381 -0.9692 7.5758
-0.6430 18.0955 -0.9361 2.9413 2.3911 0.5463 0.0000 0.0000 0.0000 -19.5879 -5.7361 -3.5065 0.6697 5.2331 14.5746 0.2156 7.4142 -14.4234 1.0528 -6.5244 -18.3139 0.0000 0.0000 0.0000 18.3746 5.6426 -7.0547 -1.5438 -7.8430 22.2383 -0.4151 -9.9652 -19.5876 -0.0905 1.9399 -5.3395 -1.5124 2.1131 5.6953 0.5468 2.7437 3.3239 1.2564 1.3488 0.1320 -6.9084 -6.8885 -5.0801 3.3194 -8.9235 6.9447 1.8590 -4.4833 3.6993 -0.0000 0.0000 0.0000 -54.3236 -7.0136 74.9895 134.4480 -51.0360 -97.3329 -0.0000 0.0000 -21.6108 0.1366 17.3023 0.0406 -7.1250 0.0000 -0.0000 -25.7364 45.5599 -0.3813 -0.0000 0.0000 0.0000 51.0076 -0.8658 72.6409 -132.8296 51.7885 -96.0677 0.0000 -0.0000 -37.8169 -17.8443 28.1082 -8.6242 7.1250 -0.0000 -0.0000 7.4097 -0.8963 7.3550
-0.6524 18.0950 -0.9589 3.0038 2.4581 0.6778 0.0000 0.0000 0.0000 -19.5988 -5.7996 -3.8070 0.6805 5.2745 14.6931 0.2179 7.2797 -14.3155 1.0236 -6.4362 -18.0554 0.0000 0.0000 0.0000 18.3035 5.7151 -7.3723 -1.5680 -7.9014 22.4150 -0.4184 -9.9602 -19.6183 -0.0889 1.9230 -5.2928 -1.5180 2.1164 5.7670 0.5240 2.7466 3.3337 1.2335 1.3506 0.1031 -6.9004 -6.8248 -5.1233 3.3958 -8.8395 6.8032 1.8889 -4.4373 3.6572 0.0000 0.0000 0.0000 -53.5920 -8.0086 75.1125 134.6801 -50.9242 -97.5132 -0.0000 0.0000 -22.4745 -0.2387 17.3932 -0.0713 -7.1250 0.0000 -0.0000 -26.1015 45.5957 -0.4122 0.0000 0.0000 0.0000 50.0918 -0.0240 73.1001 -133.2356 51.6041 -96.3864 0.0000 -0.0000 -38.7074 -18.0389 27.9276 -8.6725 7.1250 -0.0000 -0.0000 7.2768 -1.0461 7.2013
-0.6606 18.0941 -0.9830 3.0663 2.5228 0.7821 0.0000 0.0000 0.0000 -19.6181 -5.8492 -4.1221 0.6953 5.3305 14.8537 0.2160 7.2600 -14.2666 1.0762 -6.5942 -18.5184 0.0000 0.0000 0.0000 18.2257 5.7167 -7.6721 -1.5902 -7.9545 22.5759 -0.4295 -9.8865 -19.6611 -0.0821 1.8486 -5.0873 -1.5190 2.1308 5.8649 0.5265 2.7642 3.3575 1.2323 1.3594 0.0725 -6.8915 -6.7927 -5.1371 3.3861 -8.7915 6.5880 1.8892 -4.4121 3.5803 0.0000 0.0000 0.0000 -52.9319 -9.1259 75.2495 134.7995 -50.8663 -97.6058 -0.0000 0.0000 -23.4097 -0.5236 17.4319 -0.1569 -7.1250 0.0000 -0.0000 -26.3651 45.5954 -0.4168 0.0000 0.0000 0.0000 49.1321 0.8048 73.5123 -133.6307 51.4219 -96.6956 0.0000 -0.0000 -39.5105 -18.3612 28.0043 -8.8578 7.1250 -0.0000 -0.0000 7.0941 -0.9130 7.0345
-0.6691 18.0920 -1.0100 3.0304 2.6190 0.8861 0.0000 0.0000 0.0000 -19.5231 -6.0031 -4.4505 0.7138 5.3994 15.0514 0.2178 7.2564 -14.2888 1.1121 -6.6997 -18.8286 0.0000 0.0000 0.0000 18.2611 5.7568 -7.9617 -1.6091 -7.9995 22.7126 -0.4294 -9.8850 -19.6591 -0.0709 1.7176 -4.7258 -1.4436 2.1121 5.9984 0.5634 2.7412 3.3651 1.2244 1.3490 0.0087 -6.8706 -6.7437 -5.1643 3.3852 -8.7217 6.3627 1.8912 -4.3752 3.5012 -0.0000 0.0000 0.0000 -52.2089 -10.1663 75.3040 135.0087 -50.7642 -97.7680 -0.0000 0.0000 -24.0983 -0.8687 17.3558 -0.2592 -7.1250 0.0000 -0.0000 -26.6282 45.4849 -0.3435 -0.0000 0.0000 0.0000 48.1892 1.7089 73.9164 -133.9690 51.2637 -96.9598 0.0000 -0.0000 -40.3155 -18.8554 28.1702 -9.1586 7.1250 -0.0000 -0.0000 6.8196 -0.6580 6.7893
-0.6772 18.0908 -1.0347 2.9611 2.6523 1.0035 0.0000 0.0000 0.0000 -19.3921 -6.1601 -4.7830 0.7353 5.4783 15.2780 0.2168 7.2423 -14.2593 1.0723 -6.5826 -18.4846 0.0000 0.0000 0.0000 18.3402 5.8566 -8.2297 -1.6250 -8.0368 22.8260 -0.4271 -9.8977 -19.6472 -0.0678 1.6798 -4.6217 -1.2934 2.1264 6.0701 0.5707 2.7669 3.3791 1.1441 1.3637 -0.0109 -6.7541 -6.7001 -5.1562 3.3568 -8.6665 6.1047 1.8678 -4.3443 3.3976 0.0000 -0.0000 0.0000 -51.2529 -11.2946 75.4893 135.4181 -50.5620 -98.0846 -0.0000 0.0000 -24.9868 -0.5669 17.2622 -0.1682 -7.1250 0.0000 -0.0000 -26.3261 45.4380 -0.3062 0.0000 -0.0000 0.0000 47.2825 2.5865 74.2369 -134.3531 51.0815 -97.2590 0.0000 -0.0000 -41.0747 -19.4264 28.2738 -9.4841 7.1250 -0.0000 -0.0000 6.4942 -0.4503 6.4849
-0.6857 18.0905 -1.0584 2.9250 2.6666 1.1075 0.0000 0.0000 0.0000 -19.2977 -6.2120 -5.1286 0.7592 5.5647 15.5264 0.2202 7.1314 -14.1945 1.0541 -6.5284 -18.3256 0.0000 0.0000 0.0000 18.3767 5.8876 -8.4989 -1.6398 -8.0718 22.9322 -0.4306 -9.8219 -19.6076 -0.0703 1.7110 -4.7075 -1.1733 2.1443 6.1427 0.5773 2.7958 3.3847 1.0792 1.3797 -0.0411 -6.6992 -6.6514 -5.1236 3.3278 -8.6021 5.8954 1.8558 -4.3110 3.3098 -0.0000 0.0000 0.0000 -50.3412 -12.4738 75.8081 135.7834 -50.3789 -98.3664 -0.0000 0.0000 -26.0617 0.2205 17.2150 0.0652 -7.1250 0.0000 -0.0000 -25.6253 45.4916 -0.3331 -0.0000 0.0000 0.0000 46.3253 3.4531 74.5152 -134.8359 50.8486 -97.6341 0.0000 -0.0000 -41.8774 -19.7146 28.1841 -9.6060 7.1250 -0.0000 -0.0000 6.3145 -0.4895 6.2988
